<?xml version="1.0" encoding="UTF-8" standalone="no"?>
<!DOCTYPE svg PUBLIC "-//W3C//DTD SVG 1.1//EN" "http://www.w3.org/Graphics/SVG/1.1/DTD/svg11.dtd">
<svg xmlns="http://www.w3.org/2000/svg" xmlns:xlink="http://www.w3.org/1999/xlink" width="1000" height="800" viewBox="0 0 1000 800">
  <style>
    .entity {
      fill: #f5f5f5;
      stroke: #333;
      stroke-width: 2;
    }
    .entity-title {
      font-family: Arial, sans-serif;
      font-size: 16px;
      font-weight: bold;
      text-anchor: middle;
    }
    .entity-attribute {
      font-family: Arial, sans-serif;
      font-size: 12px;
      text-anchor: start;
    }
    .pk {
      font-weight: bold;
    }
    .fk {
      font-style: italic;
    }
    .relationship {
      stroke: #333;
      stroke-width: 1.5;
      fill: none;
    }
    .cardinality {
      font-family: Arial, sans-serif;
      font-size: 12px;
      text-anchor: middle;
    }
    .join-table {
      fill: #e6f3ff;
      stroke: #333;
      stroke-width: 1.5;
    }
  </style>

  <!-- User Entity -->
  <rect x="100" y="100" width="200" height="180" rx="5" ry="5" class="entity" />
  <text x="200" y="125" class="entity-title">User</text>
  <line x1="100" y1="135" x2="300" y2="135" stroke="#333" stroke-width="1" />
  <text x="110" y="155" class="entity-attribute pk">id (PK)</text>
  <text x="110" y="175" class="entity-attribute">email</text>
  <text x="110" y="195" class="entity-attribute">alias</text>
  <text x="110" y="215" class="entity-attribute">bio</text>
  <text x="110" y="235" class="entity-attribute">created_at</text>

  <!-- Post Entity -->
  <rect x="500" y="100" width="200" height="220" rx="5" ry="5" class="entity" />
  <text x="600" y="125" class="entity-title">Post</text>
  <line x1="500" y1="135" x2="700" y2="135" stroke="#333" stroke-width="1" />
  <text x="510" y="155" class="entity-attribute pk">id (PK)</text>
  <text x="510" y="175" class="entity-attribute">content</text>
  <text x="510" y="195" class="entity-attribute fk">author_id (FK)</text>
  <text x="510" y="215" class="entity-attribute fk">parent_id (FK)</text>
  <text x="510" y="235" class="entity-attribute fk">responder_id (FK)</text>
  <text x="510" y="255" class="entity-attribute">created_at</text>
  <text x="510" y="275" class="entity-attribute">updated_at</text>

  <!-- Image Entity -->
  <rect x="800" y="100" width="180" height="140" rx="5" ry="5" class="entity" />
  <text x="890" y="125" class="entity-title">Image</text>
  <line x1="800" y1="135" x2="980" y2="135" stroke="#333" stroke-width="1" />
  <text x="810" y="155" class="entity-attribute pk">id (PK)</text>
  <text x="810" y="175" class="entity-attribute fk">post_id (FK)</text>
  <text x="810" y="195" class="entity-attribute">image_url</text>
  <text x="810" y="215" class="entity-attribute">created_at</text>

  <!-- Link Entity -->
  <rect x="800" y="300" width="180" height="160" rx="5" ry="5" class="entity" />
  <text x="890" y="325" class="entity-title">Link</text>
  <line x1="800" y1="335" x2="980" y2="335" stroke="#333" stroke-width="1" />
  <text x="810" y="355" class="entity-attribute pk">id (PK)</text>
  <text x="810" y="375" class="entity-attribute fk">post_id (FK)</text>
  <text x="810" y="395" class="entity-attribute">url</text>
  <text x="810" y="415" class="entity-attribute">title</text>
  <text x="810" y="435" class="entity-attribute">created_at</text>

  <!-- Upvotes Join Table -->
  <rect x="350" y="350" width="180" height="100" rx="5" ry="5" class="join-table" />
  <text x="440" y="375" class="entity-title">upvotes</text>
  <line x1="350" y1="385" x2="530" y2="385" stroke="#333" stroke-width="1" />
  <text x="360" y="405" class="entity-attribute pk fk">user_id (PK, FK)</text>
  <text x="360" y="425" class="entity-attribute pk fk">post_id (PK, FK)</text>

  <!-- User Follows Join Table -->
  <rect x="100" y="350" width="180" height="120" rx="5" ry="5" class="join-table" />
  <text x="190" y="375" class="entity-title">user_follows</text>
  <line x1="100" y1="385" x2="280" y2="385" stroke="#333" stroke-width="1" />
  <text x="110" y="405" class="entity-attribute pk fk">follower_id (PK, FK)</text>
  <text x="110" y="425" class="entity-attribute pk fk">followed_id (PK, FK)</text>
  <text x="110" y="445" class="entity-attribute">created_at</text>

  <!-- Relationships -->
  <!-- User to Post (author) -->
  <path d="M 300 150 L 500 150" class="relationship" />
  <text x="400" y="140" class="cardinality">1</text>
  <text x="410" y="140" class="cardinality">*</text>

  <!-- User to Post (responder) -->
  <path d="M 300 170 C 350 170, 450 235, 500 235" class="relationship" />
  <text x="400" y="190" class="cardinality">1</text>
  <text x="410" y="190" class="cardinality">*</text>

  <!-- Post to Post (parent/responses) -->
  <path d="M 700 215 C 730 215, 730 250, 700 250 C 670 250, 670 215, 500 215" class="relationship" />
  <text x="650" y="240" class="cardinality">1</text>
  <text x="550" y="240" class="cardinality">*</text>

  <!-- Post to Image -->
  <path d="M 700 170 L 800 170" class="relationship" />
  <text x="750" y="160" class="cardinality">1</text>
  <text x="760" y="160" class="cardinality">*</text>

  <!-- Post to Link -->
  <path d="M 600 320 L 600 380 L 800 380" class="relationship" />
  <text x="700" y="370" class="cardinality">1</text>
  <text x="710" y="370" class="cardinality">*</text>

  <!-- User to Upvotes -->
  <path d="M 200 280 L 200 320 L 400 320 L 400 350" class="relationship" />
  <text x="300" y="310" class="cardinality">1</text>
  <text x="310" y="310" class="cardinality">*</text>

  <!-- Post to Upvotes -->
  <path d="M 600 320 L 600 330 L 480 330 L 480 350" class="relationship" />
  <text x="540" y="320" class="cardinality">1</text>
  <text x="550" y="320" class="cardinality">*</text>

  <!-- User to User Follows (follower) -->
  <path d="M 150 280 L 150 350" class="relationship" />
  <text x="140" y="315" class="cardinality">1</text>
  <text x="160" y="315" class="cardinality">*</text>

  <!-- User to User Follows (followed) -->
  <path d="M 250 280 L 250 350" class="relationship" />
  <text x="240" y="315" class="cardinality">1</text>
  <text x="260" y="315" class="cardinality">*</text>

  <!-- Self-referential relationship for User follows -->
  <path d="M 100 200 C 50 200, 50 400, 100 400" class="relationship" stroke-dasharray="5,5" />
  <text x="60" y="300" class="cardinality">follows</text>
</svg>
